<?xml version="1.0" encoding="UTF-8"?>
<!DOCTYPE svg PUBLIC "-//W3C//DTD SVG 1.1//EN" "http://www.w3.org/Graphics/SVG/1.1/DTD/svg11.dtd">
<!-- Creator: CorelDRAW X8 -->
<svg xmlns="http://www.w3.org/2000/svg" xml:space="preserve" width="1.55941in" height="0.550004in" version="1.1" style="shape-rendering:geometricPrecision; text-rendering:geometricPrecision; image-rendering:optimizeQuality; fill-rule:evenodd; clip-rule:evenodd"
viewBox="0 0 1223 431"
 xmlns:xlink="http://www.w3.org/1999/xlink">
 <defs>
  <style type="text/css">
   <![CDATA[
    .fil1 {fill:#9933CC}
    .fil2 {fill:#99FF00}
    .fil0 {fill:#990099;fill-rule:nonzero}
   ]]>
  </style>
 </defs>
 <g id="Layer_x0020_1">
  <metadata id="CorelCorpID_0Corel-Layer"/>
  <path class="fil0" d="M0 431l0 -38c26,-7 45,-26 59,-56 14,-31 21,-71 21,-120l0 -214 28 0 0 213c0,61 -9,109 -27,146 -19,36 -46,59 -81,69z"/>
  <path class="fil0" d="M147 158c0,31 8,56 24,76 16,21 36,31 60,31 24,0 44,-10 60,-31 16,-20 24,-45 24,-76 0,-30 -8,-55 -25,-76 -16,-20 -36,-30 -60,-30 -23,0 -43,10 -59,30 -16,21 -24,46 -24,76zm-19 0c0,-15 2,-29 6,-43 4,-14 9,-26 17,-38 10,-15 21,-26 35,-34 14,-8 28,-12 44,-12 12,0 24,3 35,8 12,4 22,11 31,21 12,12 21,26 28,43 6,17 9,36 9,55 0,16 -2,30 -5,44 -4,14 -10,26 -17,38 -10,15 -22,26 -36,34 -13,8 -28,12 -44,12 -14,0 -27,-4 -40,-10 -12,-6 -23,-16 -33,-28 -10,-11 -17,-25 -22,-40 -6,-16 -8,-32 -8,-50z"/>
  <path class="fil0" d="M389 284c23,-1 42,-7 55,-19 13,-12 20,-29 20,-49 0,-16 -5,-30 -13,-42 -9,-11 -21,-19 -37,-25 12,-4 22,-12 28,-22 7,-9 10,-21 10,-36 0,-18 -5,-31 -16,-42 -11,-10 -27,-15 -47,-16l0 251zm-27 28l0 -307 1 0c38,0 66,8 86,23 20,15 30,36 30,64 0,11 -1,21 -5,30 -3,8 -9,17 -16,25 11,6 20,15 26,26 5,11 8,25 8,41 0,31 -11,55 -32,72 -22,17 -53,26 -93,26l-5 0z"/>
  <path class="fil1" d="M559 0l622 0c23,0 42,19 42,43l0 231c0,24 -19,43 -42,43l-622 0c-23,0 -43,-19 -43,-43l0 -231c0,-24 20,-43 43,-43zm575 274l-21 0 0 -81c-23,-17 -41,-38 -53,-62 -11,-24 -19,-54 -22,-89l22 0c0,28 6,53 17,76 10,23 26,42 47,57 21,-15 37,-35 48,-57 11,-23 17,-47 17,-73l0 -3 22 0c-1,32 -8,61 -21,87 -14,26 -32,47 -56,64l0 81zm-234 -14l99 -193c-6,-3 -12,-5 -18,-6 -6,-1 -12,-2 -19,-2 -7,0 -15,1 -24,3 -8,2 -17,5 -27,9l-5 -19c10,-5 20,-8 29,-10 10,-2 19,-3 28,-3 10,0 20,1 30,4 11,3 21,7 33,13l-97 194c6,2 12,5 17,6 6,1 11,2 17,2 9,0 19,-2 28,-4 10,-3 20,-8 32,-14l6 19c-11,6 -22,11 -33,14 -11,3 -22,5 -33,5 -13,0 -25,-2 -36,-5 -11,-3 -20,-7 -27,-13zm-149 0l100 -193c-6,-3 -12,-5 -18,-6 -6,-1 -12,-2 -19,-2 -7,0 -15,1 -24,3 -8,2 -18,5 -27,9l-6 -19c10,-5 20,-8 30,-10 10,-2 19,-3 28,-3 10,0 20,1 30,4 11,3 21,7 32,13l-96 194c6,2 11,5 17,6 5,1 11,2 16,2 10,0 19,-2 29,-4 10,-3 20,-8 31,-14l7 19c-11,6 -22,11 -33,14 -11,3 -22,5 -33,5 -13,0 -25,-2 -36,-5 -11,-3 -20,-7 -28,-13zm-54 14l0 -232 22 0 0 232 -22 0zm-41 0c-42,-20 -73,-50 -95,-89 -21,-39 -32,-87 -32,-143l21 0 0 1c0,45 7,84 21,116 14,32 35,59 65,81l0 -198 20 0 0 232z"/>
  <path class="fil2" d="M442 127c7,-9 10,-21 10,-36 0,-18 -5,-31 -16,-42 -11,-10 -27,-15 -47,-16l0 251c23,-1 42,-7 55,-19 13,-12 20,-29 20,-49 0,-16 -5,-30 -13,-42 -9,-11 -21,-19 -37,-25 12,-4 22,-12 28,-22z"/>
  <path class="fil2" d="M315 158c0,-30 -8,-55 -25,-76 -16,-20 -36,-30 -60,-30 -23,0 -43,10 -59,30 -16,21 -24,46 -24,76 0,31 8,56 24,76 16,21 36,31 60,31 24,0 44,-10 60,-31 16,-20 24,-45 24,-76z"/>
  <path class="fil2" d="M561 185c22,39 53,69 95,89l0 -232 -20 0 0 198c-30,-22 -51,-49 -65,-81 -14,-32 -21,-71 -21,-116l0 -1 -21 0c0,56 11,104 32,143z"/>
  <polygon class="fil2" points="697,42 697,274 719,274 719,42 "/>
  <path class="fil2" d="M851 67l-100 193c8,6 17,10 28,13 11,3 23,5 36,5 11,0 22,-2 33,-5 11,-3 22,-8 33,-14l-7 -19c-11,6 -21,11 -31,14 -10,2 -19,4 -29,4 -5,0 -11,-1 -16,-2 -6,-1 -11,-4 -17,-6l96 -194c-11,-6 -21,-10 -32,-13 -10,-3 -20,-4 -30,-4 -9,0 -18,1 -28,3 -10,2 -20,5 -30,10l6 19c9,-4 19,-7 27,-9 9,-2 17,-3 24,-3 7,0 13,1 19,2 6,1 12,3 18,6z"/>
  <path class="fil2" d="M963 258c-6,0 -11,-1 -17,-2 -5,-1 -11,-4 -17,-6l97 -194c-12,-6 -22,-10 -33,-13 -10,-3 -20,-4 -30,-4 -9,0 -18,1 -28,3 -9,2 -19,5 -29,10l5 19c10,-4 19,-7 27,-9 9,-2 17,-3 24,-3 7,0 13,1 19,2 6,1 12,3 18,6l-99 193c7,6 16,10 27,13 11,3 23,5 36,5 11,0 22,-2 33,-5 11,-3 22,-8 33,-14l-6 -19c-12,6 -22,11 -32,14 -9,2 -19,4 -28,4z"/>
  <path class="fil2" d="M1060 131c12,24 30,45 53,62l0 81 21 0 0 -81c24,-17 42,-38 56,-64 13,-26 20,-55 21,-87l-22 0 0 3c0,26 -6,50 -17,73 -11,22 -27,42 -48,57 -21,-15 -37,-34 -47,-57 -11,-23 -17,-48 -17,-76l-22 0c3,35 11,65 22,89z"/>
 </g>
</svg>
